<?xml version="1.0" standalone="no"?>
<!DOCTYPE svg PUBLIC "-//W3C//DTD SVG 20010904//EN"
 "http://www.w3.org/TR/2001/REC-SVG-20010904/DTD/svg10.dtd">
<svg version="1.0" xmlns="http://www.w3.org/2000/svg"
 width="500.000000pt" height="500.000000pt" viewBox="0 0 500.000000 500.000000"
 preserveAspectRatio="xMidYMid meet">

<g transform="translate(0.000000,500.000000) scale(0.100000,-0.100000)"
fill="#000000" stroke="none">
<path d="M2335 3864 c-11 -3 -67 -14 -125 -25 -456 -89 -853 -441 -1008 -894
-55 -162 -67 -241 -67 -445 0 -141 4 -205 18 -270 100 -466 418 -841 854
-1010 315 -122 681 -120 998 5 428 168 743 544 842 1005 26 120 26 420 0 540
-97 453 -398 819 -820 997 -45 19 -136 48 -202 65 -107 27 -139 31 -295 34
-96 1 -184 1 -195 -2z m-86 -991 c62 -31 121 -99 140 -163 52 -175 17 -408
-85 -562 -76 -114 -163 -177 -273 -198 -72 -14 -278 -13 -286 1 -8 12 36 875
46 890 6 11 133 46 214 60 87 14 182 3 244 -28z m494 -108 c-1 -77 -5 -157 -8
-177 -5 -35 -4 -37 27 -40 18 -2 61 -2 95 0 l62 4 5 41 c3 23 9 103 13 177 l8
135 116 3 c89 2 118 0 122 -11 2 -7 1 -60 -4 -117 -5 -58 -12 -262 -15 -455
-4 -207 -11 -355 -16 -362 -7 -9 -45 -13 -124 -13 -102 0 -114 2 -124 19 -5
11 -8 26 -6 33 3 7 7 86 11 176 l6 162 -26 0 c-14 0 -54 -7 -89 -16 l-64 -16
-6 -45 c-3 -25 -6 -105 -6 -178 0 -112 -2 -134 -16 -139 -9 -3 -65 -6 -125 -6
-89 0 -111 3 -115 15 -8 20 54 927 63 936 14 13 48 17 133 16 l85 -2 -2 -140z"/>
<path d="M2270 2690 c0 -5 7 -10 15 -10 8 0 15 5 15 10 0 6 -7 10 -15 10 -8 0
-15 -4 -15 -10z"/>
<path d="M2041 2670 c-19 -5 -38 -15 -43 -23 -4 -9 -11 -91 -13 -184 -4 -120
-9 -173 -20 -189 -7 -12 -10 -25 -5 -30 5 -5 10 -21 12 -36 3 -26 3 -26 42
-13 21 7 51 26 67 41 35 34 77 121 91 190 8 42 15 54 34 58 17 5 22 11 16 24
-6 16 -7 16 -10 0 -6 -32 -32 -8 -32 31 0 55 -18 109 -43 126 -23 16 -43 17
-96 5z"/>
<path d="M1812 2630 c0 -14 2 -19 5 -12 2 6 2 18 0 25 -3 6 -5 1 -5 -13z"/>
<path d="M1801 2554 c0 -11 3 -14 6 -6 3 7 2 16 -1 19 -3 4 -6 -2 -5 -13z"/>
<path d="M2282 2370 c0 -14 2 -19 5 -12 2 6 2 18 0 25 -3 6 -5 1 -5 -13z"/>
<path d="M1800 2055 c0 -8 5 -15 10 -15 6 0 10 7 10 15 0 8 -4 15 -10 15 -5 0
-10 -7 -10 -15z"/>
<path d="M2618 2853 c7 -3 16 -2 19 1 4 3 -2 6 -13 5 -11 0 -14 -3 -6 -6z"/>
<path d="M2673 2853 c9 -2 23 -2 30 0 6 3 -1 5 -18 5 -16 0 -22 -2 -12 -5z"/>
<path d="M2860 2470 c-12 -8 -12 -10 3 -16 10 -3 21 -4 24 0 4 3 1 6 -6 6 -7
0 -9 5 -6 10 8 12 4 12 -15 0z"/>
<path d="M2595 2310 c3 -5 8 -10 11 -10 2 0 4 5 4 10 0 6 -5 10 -11 10 -5 0
-7 -4 -4 -10z"/>
</g>
</svg>
